# xmcd CD database file
#
# Track frame offsets:
#	150
#	12376
#	25305
#	39731
#	50246
#	83029
#	95599
#	108368
#	119378
#	133504
#	147697
#	161537
#	185278
#	196754
#	215538
#	227705
#	251305
#	262869
#	280787
#	297525
#	307643
#	324031
#
# Disc length: 4506 seconds
#
# Revision: 0
# Processed by: cddbd v1.5.1PL2 Copyright (c) Steve Scherf et al.
# Submitted via: CDex 1.50
#
DISCID=33119816
DTITLE=Dizzy Gillespie - The Verve Philips Small Group Sessions 7
DYEAR=2006
DGENRE=Jazz
TTITLE0=Theme From Exodus
TTITLE1=Moon River
TTITLE2=Caesar And Cleopatra Theme
TTITLE3=Days Of Wine And Roses
TTITLE4=Walk On The Wild Side
TTITLE5=More
TTITLE6=Love Theme From Lolita
TTITLE7=Theme From Picnic
TTITLE8=Never On Sunday
TTITLE9=Theme From Lawrence Of Arabia
TTITLE10=Carioca
TTITLE11=Theme From The Cool World
TTITLE12=The Pushers
TTITLE13=Enter, Priest
TTITLE14=Duke's Awakening
TTITLE15=Duke On The Run
TTITLE16=Street Music
TTITLE17=Bonnies' Blues
TTITLE18=Coney Island
TTITLE19=Duke's Fantasy
TTITLE20=Coolie
TTITLE21=Duke's Last Soliloquy
EXTD=YEAR: 2006
EXTT0=
EXTT1=
EXTT2=
EXTT3=
EXTT4=
EXTT5=
EXTT6=
EXTT7=
EXTT8=
EXTT9=
EXTT10=
EXTT11=
EXTT12=
EXTT13=
EXTT14=
EXTT15=
EXTT16=
EXTT17=
EXTT18=
EXTT19=
EXTT20=
EXTT21=
PLAYORDER=
